<svg width="40" height="40" viewBox="0 0 40 40" fill="none" xmlns="http://www.w3.org/2000/svg">
<path d="M30.8334 21.0833V27.25C30.8334 32.45 25.9834 36.6667 20.0001 36.6667C14.0167 36.6667 9.16675 32.45 9.16675 27.25V21.0833C9.16675 26.2833 14.0167 30 20.0001 30C25.9834 30 30.8334 26.2833 30.8334 21.0833Z" stroke="#FAFAFA" stroke-width="1.5" stroke-linecap="round" stroke-linejoin="round"/>
<path d="M30.8334 12.75C30.8334 14.2667 30.4167 15.6667 29.6834 16.8667C27.9001 19.8 24.2334 21.6667 20.0001 21.6667C15.7667 21.6667 12.1001 19.8 10.3168 16.8667C9.58342 15.6667 9.16675 14.2667 9.16675 12.75C9.16675 10.15 10.3834 7.79999 12.3334 6.09999C14.3001 4.38333 17.0001 3.33333 20.0001 3.33333C23.0001 3.33333 25.7001 4.38333 27.6668 6.08333C29.6168 7.8 30.8334 10.15 30.8334 12.75Z" stroke="#FAFAFA" stroke-width="1.5" stroke-linecap="round" stroke-linejoin="round"/>
<path d="M30.8334 12.75V21.0833C30.8334 26.2833 25.9834 30 20.0001 30C14.0167 30 9.16675 26.2833 9.16675 21.0833V12.75C9.16675 7.55 14.0167 3.33333 20.0001 3.33333C23.0001 3.33333 25.7001 4.38333 27.6668 6.08333C29.6168 7.8 30.8334 10.15 30.8334 12.75Z" stroke="#FAFAFA" stroke-width="1.5" stroke-linecap="round" stroke-linejoin="round"/>
</svg>
