<svg width="38" height="40" viewBox="0 0 38 40" fill="none" xmlns="http://www.w3.org/2000/svg">
<path d="M13.7305 23.8831C13.7305 26.0331 15.298 27.7664 17.2455 27.7664H21.2196C22.9138 27.7664 24.2913 26.2497 24.2913 24.3831C24.2913 22.3497 23.4521 21.6331 22.2013 21.1664L15.8205 18.8331C14.5696 18.3664 13.7305 17.6497 13.7305 15.6164C13.7305 13.7497 15.108 12.2331 16.8021 12.2331H20.7763C22.7238 12.2331 24.2913 13.9664 24.2913 16.1164" stroke="#FAFAFA" stroke-width="2" stroke-linecap="round" stroke-linejoin="round"/>
<path d="M19 10V30" stroke="#FAFAFA" stroke-width="2" stroke-linecap="round" stroke-linejoin="round"/>
<path d="M23.75 36.6667H14.25C6.33329 36.6667 3.16663 33.3333 3.16663 25V15C3.16663 6.66666 6.33329 3.33333 14.25 3.33333H23.75C31.6666 3.33333 34.8333 6.66666 34.8333 15V25C34.8333 33.3333 31.6666 36.6667 23.75 36.6667Z" stroke="#FAFAFA" stroke-width="2" stroke-linecap="round" stroke-linejoin="round"/>
</svg>
